<?xml version="1.0" encoding="UTF-8" standalone="no"?>
<!-- Created with Inkscape (http://www.inkscape.org/) -->

<svg
   xmlns:dc="http://purl.org/dc/elements/1.1/"
   xmlns:cc="http://creativecommons.org/ns#"
   xmlns:rdf="http://www.w3.org/1999/02/22-rdf-syntax-ns#"
   xmlns:svg="http://www.w3.org/2000/svg"
   xmlns="http://www.w3.org/2000/svg"
   version="1.1"
   width="465.10001"
   height="465.10001"
   id="svg2">
  <defs
     id="defs4">
    <filter
       id="filter3820">
      <feGaussianBlur
         id="feGaussianBlur3822"
         stdDeviation="3.6721781" />
    </filter>
  </defs>
  <metadata
     id="metadata7">
    <rdf:RDF>
      <cc:Work
         rdf:about="">
        <dc:format>image/svg+xml</dc:format>
        <dc:type
           rdf:resource="http://purl.org/dc/dcmitype/StillImage" />
        <dc:title></dc:title>
      </cc:Work>
    </rdf:RDF>
  </metadata>
  <g
     transform="translate(-194.34243,-263.11948)"
     id="layer1">
    <path
       d="m 402.78007,713.47155 c -0.72683,-1.17603 1.85943,-2.58681 6.46899,-3.52876 3.7705,-0.7705 8.37225,-3.14726 11.83655,-6.11349 3.03848,-2.60163 2.98675,-8.15348 -0.0865,-9.28807 -1.2375,-0.45685 -11.475,-1.12464 -22.75,-1.48398 -11.275,-0.35933 -24.1,-1.3096 -28.5,-2.1117 -4.4,-0.80211 -10.18357,-1.73266 -12.85237,-2.0679 -2.87818,-0.36153 -8.77752,-2.61605 -14.5,-5.54139 -7.76514,-3.96953 -11.4419,-6.68494 -18.84315,-13.91626 -10.60333,-10.35988 -12.81274,-14.30361 -19.81615,-35.37123 -4.37846,-13.17126 -4.5288,-14.02851 -4.55907,-25.99653 -0.0376,-14.86202 0.15117,-15.81242 5.28921,-26.63086 4.39957,-9.26356 10.38805,-17.05919 18.84425,-24.53088 7.69667,-6.8006 8.81928,-8.26206 9.48478,-12.34769 2.76277,-16.96106 7.59015,-33.24755 11.81153,-39.84943 7.55196,-11.8106 24.95662,-25.31914 41.64097,-32.31941 8.80561,-3.69459 11,-5.57755 11,-9.4389 0,-5.51016 -0.85934,-6.4134 -8.23233,-8.65287 -9.52274,-2.89245 -17.58976,-2.15464 -33.76236,3.0879 -6.87208,2.22766 -15.87208,4.4809 -20,5.0072 -4.12792,0.52629 -12.79356,2.34727 -19.25699,4.04661 -11.19531,2.94344 -11.91054,3.01433 -15.10711,1.49746 -12.99635,-6.16718 -17.87553,-30.59369 -8.6539,-43.32378 4.25298,-5.87107 10.52492,-7.7723 19.14407,-5.80319 3.50274,0.80023 8.78625,1.94847 11.74115,2.55164 2.95488,0.60318 9.25488,2.94202 14,5.19742 12.78156,6.07522 17.8176,7.90412 26.12747,9.48852 4.125,0.78649 10.2,2.36744 13.5,3.51323 3.3,1.14578 8.8521,2.14915 12.338,2.22971 5.54991,0.12825 6.57574,-0.14709 8.25,-2.21432 1.0516,-1.29844 1.91032,-3.32344 1.90826,-4.5 -0.009,-5.02018 -7.51261,-12.66897 -15.99626,-16.30527 -14.27011,-6.11651 -27.1235,-9.71812 -42,-11.76869 -20.83827,-2.87235 -25.12848,-3.94406 -31.10962,-7.7713 -10.36979,-6.63548 -13.82926,-19.04939 -8.41534,-30.19747 6.54002,-13.46688 11.85738,-14.94693 23.7261,-6.60401 3.13563,2.20413 5.94709,4.00752 6.24769,4.00752 1.55732,0 12.06409,8.33435 19.55117,15.5087 16.38026,15.69608 31.37889,25.42338 39.27144,25.46934 3.06234,0.0178 3.98535,-0.44753 4.90917,-2.47509 2.23859,-4.91317 -0.26302,-9.30768 -11.43611,-20.08954 -10.64109,-10.26847 -16.71696,-14.68433 -35.02485,-25.4556 -5.92919,-3.48839 -12.7561,-8.29036 -15.17091,-10.67105 -5.5853,-5.50641 -8.97239,-12.31286 -8.26123,-16.60117 1.90444,-11.48374 9.81216,-22.55825 17.60625,-24.65698 3.66264,-0.98625 4.77038,-0.88389 7.93172,0.73287 4.32502,2.21188 10.12342,10.30667 12.6297,17.63155 0.96107,2.80883 2.37682,6.52498 3.14611,8.2581 0.76929,1.73312 1.39871,3.56447 1.39871,4.06967 0,1.92983 13.28139,22.9553 16.75799,26.5292 2.8151,2.89388 4.43011,3.75 7.07417,3.75 l 3.42626,0 -0.6949,-7.25 c -0.68327,-7.12872 -3.08519,-17.2864 -4.55192,-19.25 -0.41083,-0.55 -1.54381,-3.475 -2.51773,-6.5 -1.5848,-4.92236 -5.53864,-12.97001 -9.08912,-18.5 -0.70624,-1.1 -2.01373,-5.2248 -2.90552,-9.16623 -1.25592,-5.55077 -1.38389,-8.04839 -0.56769,-11.07953 1.76215,-6.54414 7.05263,-12.16313 16.06846,-17.06624 4.21147,-2.29034 12.45298,-2.67341 17.24166,-0.8014 8.6228,3.37086 10.66935,9.87359 8.90301,28.28861 -0.67657,7.05364 -1.61863,16.87479 -2.09346,21.82479 -0.47483,4.95 -0.9049,14.85 -0.95571,22 -0.107,15.05563 1.30634,19.75787 6.10505,20.31165 10.02247,1.15662 13.18652,-12.12834 12.62993,-53.02956 l -0.33048,-24.28542 3.2254,-6.57109 c 4.74879,-9.67465 5.88962,-10.43172 15.66338,-10.39435 13.64938,0.0522 19.21322,5.15406 18.40316,16.87514 -0.45291,6.55322 -8.02599,28.65575 -14.76536,43.09363 -2.05385,4.4 -4.08301,9.125 -4.50923,10.5 -0.42623,1.375 -1.92593,4.525 -3.33267,7 -7.74214,13.62139 -11.31174,21.70387 -12.40745,28.09353 -0.64544,3.76392 -0.89653,7.12051 -0.55797,7.45907 0.33856,0.33856 2.34023,0.84083 4.44815,1.11616 3.33269,0.4353 4.27769,0.0656 7.24502,-2.83408 3.54235,-3.46165 11.28856,-14.79166 13.3893,-19.58391 0.66322,-1.51292 3.11844,-5.98236 5.45605,-9.93209 4.58732,-7.75089 13.04114,-25.17011 16.87617,-34.77356 4.79894,-12.0172 9.78206,-16.86405 17.45458,-16.97722 7.66592,-0.11308 14.51818,4.20893 19.91758,12.56286 5.16632,7.99329 5.60274,11.27618 2.87279,21.61013 -2.54334,9.62758 -5.62302,13.52664 -13.75162,17.41035 -2.545,1.21597 -4.85228,2.50416 -5.12728,2.86267 -0.275,0.3585 -4.1,2.81147 -8.5,5.45104 -4.4,2.63958 -10.08529,6.31479 -12.63398,8.16714 -2.54868,1.85235 -4.87936,3.36791 -5.17928,3.36791 -1.6969,0 -13.00402,8.55137 -16.13798,12.20485 -6.67086,7.77673 -12.60346,17.63007 -12.73589,21.15284 -0.16989,4.51893 0.73601,5.64231 4.54998,5.64231 2.40788,0 4.13369,-0.91905 6.69098,-3.56317 1.89539,-1.95975 7.49617,-6.11634 12.44617,-9.23688 4.95,-3.12054 10.08778,-6.57962 11.41729,-7.68683 5.68251,-4.73238 22.08271,-20.0162 22.08271,-20.57951 0,-0.33843 1.72533,-2.37543 3.83406,-4.52666 2.10874,-2.15124 4.02124,-4.36751 4.25,-4.92506 0.22877,-0.55754 3.34094,-2.74451 6.91594,-4.85992 6.15344,-3.64113 6.85162,-3.82127 13.09489,-3.3787 7.7419,0.5488 11.17031,2.64316 16.74833,10.23128 3.39161,4.61381 3.65647,5.48399 3.65254,12 -0.0104,17.17091 -8.4306,24.72541 -29.61936,26.57402 -24.09224,2.10192 -42.23445,7.24976 -55.00877,15.60869 -6.08245,3.98009 -8.05263,5.83114 -16.08555,15.11294 -6.05442,6.9957 -7.17664,15.61472 -2.43739,18.72 2.4099,1.57902 13.32671,3.88329 26.02549,5.49334 4.59693,0.58283 12.32894,2.68965 18.77791,5.11659 9.57013,3.60153 11.75027,4.0719 17.15754,3.7018 5.06173,-0.34645 7.26826,-1.11852 12.06744,-4.22241 20.67232,-13.3699 31.72114,-11.74792 50.414,7.40085 8.02012,8.21572 9.66772,12.43575 9.3772,24.01803 -0.40752,16.24667 -3.52362,24.58749 -15.31489,40.99308 -5.61407,7.81104 -6.17545,9.07412 -7.00585,15.76275 -0.4965,3.99921 -1.33941,8.41984 -1.87313,9.82363 -0.53372,1.40379 -0.9704,5.17333 -0.9704,8.37677 0,6.99994 -2.32113,20.13271 -5.13129,29.03249 -5.54294,17.55447 -20.64547,38.64416 -33.04307,46.14246 -2.15557,1.30373 -7.61066,5.08487 -12.12243,8.40252 -11.56583,8.50475 -28.69002,19.19914 -33.40723,20.86347 -9.74762,3.43916 -13.61137,6.46138 -21.29598,16.65769 -3.75515,4.98252 -8.98446,9.81404 -11.3748,10.50954 -1.16886,0.34009 -4.8252,1.66233 -8.1252,2.9383 -6.65624,2.5737 -23.82348,6.4989 -28.42354,6.4989 -1.62713,0 -3.22259,-0.42742 -3.54545,-0.94983 z m 16.3894,-56.57502 c 13.84981,-1.82965 22.95476,-4.08304 25.41214,-6.28928 2.56114,-2.29938 3.93629,-5.96691 7.59175,-20.24713 1.75124,-6.84131 4.33921,-15.97899 5.75105,-20.30597 1.41184,-4.32698 2.62495,-10.17698 2.69581,-13 l 0.12884,-5.13277 -5.5,0.0532 c -4.68498,0.0453 -6.52296,0.68743 -12.40324,4.33301 -8.008,4.96471 -8.90023,5.34155 -21.75154,9.18703 -13.56931,4.06031 -26.79527,5.55838 -35.8586,4.06161 -8.07939,-1.33429 -19.31705,-6.58777 -30.73258,-14.36716 -6.60596,-4.50179 -7.77655,-4.96096 -11.40604,-4.47415 -4.95859,0.66509 -8.05854,3.44379 -10.70499,9.59564 -4.22103,9.81205 -3.5666,22.83921 1.62844,32.41617 2.76402,5.09543 14.05473,15.47119 20.41988,18.76515 2.03022,1.05064 7.43022,3.01563 12,4.36665 7.31098,2.16142 10.28996,2.4618 24.80867,2.50154 9.27936,0.0254 21.49773,-0.61508 27.92041,-1.46356 z m 64.89452,-19.28703 c 16.74116,-8.85554 28.46297,-20.87994 35.82042,-36.74511 6.37958,-13.75656 5.6166,-20.46326 -2.16195,-19.004 -4.22951,0.79346 -25.03032,16.11691 -34.00901,25.05361 -7.95212,7.91492 -13.5634,18.50565 -13.61917,25.7048 -0.065,8.39594 4.4696,10.01595 13.96971,4.9907 z m -59.99125,-67.76323 c 4.22198,-1.41631 9.25132,-3.53272 11.17632,-4.70314 4.30053,-2.61475 23,-18.63483 23,-19.7044 0,-0.42589 4.42673,-5.52998 9.83717,-11.34243 23.59277,-25.3457 24.63806,-30.87551 7.1138,-37.63358 -9.81997,-3.78698 -15.56077,-4.65525 -20.34339,-3.07684 -4.74024,1.56441 -6.17575,4.57962 -6.98363,14.66863 -0.35819,4.47322 -1.52068,10.66015 -2.5833,13.74873 -3.69606,10.74278 -14.86833,24.66267 -27.92408,34.79151 -3.63911,2.82328 -7.40407,6.0141 -8.36657,7.09072 -2.49952,2.79586 -2.25276,6.59827 0.5,7.70475 3.66237,1.47209 6.46947,1.1747 14.57368,-1.54395 z m 71.87477,-2.94336 c 4.31133,-1.80139 29.73948,-20.84097 31.84093,-23.84122 0.80334,-1.14693 1.46062,-4.20253 1.46062,-6.79024 0,-3.87643 -0.45808,-5.06524 -2.60145,-6.75121 -6.46684,-5.08682 -14.40595,-2.84455 -20.53631,5.80015 -1.79452,2.53054 -6.00516,7.52599 -9.35696,11.10099 -10.42817,11.12257 -12.50528,13.91881 -12.50528,16.8348 0,5.22926 4.5307,6.6416 11.69845,3.64673 z M 391.80097,532.66939 c 13.11403,-6.66721 21.40893,-16.15838 21.43832,-24.53013 0.0165,-4.69871 -2.57955,-9.5767 -5.48473,-10.30586 -10.12485,-2.54117 -30.80914,9.27667 -38.65968,22.08798 -2.31095,3.77124 -2.4172,11.23923 -0.20484,14.39782 1.53229,2.18764 2.14499,2.3125 9.25,1.88491 5.91923,-0.35623 8.95301,-1.14121 13.66093,-3.53472 z"
       id="path3006"
       style="fill:none;stroke:#00ff00;stroke-width:10;stroke-miterlimit:4;stroke-opacity:1;stroke-dasharray:none;filter:url(#filter3820)" />
    <path
       d="m 402.78007,713.47155 c -0.72683,-1.17603 1.85943,-2.58681 6.46899,-3.52876 3.7705,-0.7705 8.37225,-3.14726 11.83655,-6.11349 3.03848,-2.60163 2.98675,-8.15348 -0.0865,-9.28807 -1.2375,-0.45685 -11.475,-1.12464 -22.75,-1.48398 -11.275,-0.35933 -24.1,-1.3096 -28.5,-2.1117 -4.4,-0.80211 -10.18357,-1.73266 -12.85237,-2.0679 -2.87818,-0.36153 -8.77752,-2.61605 -14.5,-5.54139 -7.76514,-3.96953 -11.4419,-6.68494 -18.84315,-13.91626 -10.60333,-10.35988 -12.81274,-14.30361 -19.81615,-35.37123 -4.37846,-13.17126 -4.5288,-14.02851 -4.55907,-25.99653 -0.0376,-14.86202 0.15117,-15.81242 5.28921,-26.63086 4.39957,-9.26356 10.38805,-17.05919 18.84425,-24.53088 7.69667,-6.8006 8.81928,-8.26206 9.48478,-12.34769 2.76277,-16.96106 7.59015,-33.24755 11.81153,-39.84943 7.55196,-11.8106 24.95662,-25.31914 41.64097,-32.31941 8.80561,-3.69459 11,-5.57755 11,-9.4389 0,-5.51016 -0.85934,-6.4134 -8.23233,-8.65287 -9.52274,-2.89245 -17.58976,-2.15464 -33.76236,3.0879 -6.87208,2.22766 -15.87208,4.4809 -20,5.0072 -4.12792,0.52629 -12.79356,2.34727 -19.25699,4.04661 -11.19531,2.94344 -11.91054,3.01433 -15.10711,1.49746 -12.99635,-6.16718 -17.87553,-30.59369 -8.6539,-43.32378 4.25298,-5.87107 10.52492,-7.7723 19.14407,-5.80319 3.50274,0.80023 8.78625,1.94847 11.74115,2.55164 2.95488,0.60318 9.25488,2.94202 14,5.19742 12.78156,6.07522 17.8176,7.90412 26.12747,9.48852 4.125,0.78649 10.2,2.36744 13.5,3.51323 3.3,1.14578 8.8521,2.14915 12.338,2.22971 5.54991,0.12825 6.57574,-0.14709 8.25,-2.21432 1.0516,-1.29844 1.91032,-3.32344 1.90826,-4.5 -0.009,-5.02018 -7.51261,-12.66897 -15.99626,-16.30527 -14.27011,-6.11651 -27.1235,-9.71812 -42,-11.76869 -20.83827,-2.87235 -25.12848,-3.94406 -31.10962,-7.7713 -10.36979,-6.63548 -13.82926,-19.04939 -8.41534,-30.19747 6.54002,-13.46688 11.85738,-14.94693 23.7261,-6.60401 3.13563,2.20413 5.94709,4.00752 6.24769,4.00752 1.55732,0 12.06409,8.33435 19.55117,15.5087 16.38026,15.69608 31.37889,25.42338 39.27144,25.46934 3.06234,0.0178 3.98535,-0.44753 4.90917,-2.47509 2.23859,-4.91317 -0.26302,-9.30768 -11.43611,-20.08954 -10.64109,-10.26847 -16.71696,-14.68433 -35.02485,-25.4556 -5.92919,-3.48839 -12.7561,-8.29036 -15.17091,-10.67105 -5.5853,-5.50641 -8.97239,-12.31286 -8.26123,-16.60117 1.90444,-11.48374 9.81216,-22.55825 17.60625,-24.65698 3.66264,-0.98625 4.77038,-0.88389 7.93172,0.73287 4.32502,2.21188 10.12342,10.30667 12.6297,17.63155 0.96107,2.80883 2.37682,6.52498 3.14611,8.2581 0.76929,1.73312 1.39871,3.56447 1.39871,4.06967 0,1.92983 13.28139,22.9553 16.75799,26.5292 2.8151,2.89388 4.43011,3.75 7.07417,3.75 l 3.42626,0 -0.6949,-7.25 c -0.68327,-7.12872 -3.08519,-17.2864 -4.55192,-19.25 -0.41083,-0.55 -1.54381,-3.475 -2.51773,-6.5 -1.5848,-4.92236 -5.53864,-12.97001 -9.08912,-18.5 -0.70624,-1.1 -2.01373,-5.2248 -2.90552,-9.16623 -1.25592,-5.55077 -1.38389,-8.04839 -0.56769,-11.07953 1.76215,-6.54414 7.05263,-12.16313 16.06846,-17.06624 4.21147,-2.29034 12.45298,-2.67341 17.24166,-0.8014 8.6228,3.37086 10.66935,9.87359 8.90301,28.28861 -0.67657,7.05364 -1.61863,16.87479 -2.09346,21.82479 -0.47483,4.95 -0.9049,14.85 -0.95571,22 -0.107,15.05563 1.30634,19.75787 6.10505,20.31165 10.02247,1.15662 13.18652,-12.12834 12.62993,-53.02956 l -0.33048,-24.28542 3.2254,-6.57109 c 4.74879,-9.67465 5.88962,-10.43172 15.66338,-10.39435 13.64938,0.0522 19.21322,5.15406 18.40316,16.87514 -0.45291,6.55322 -8.02599,28.65575 -14.76536,43.09363 -2.05385,4.4 -4.08301,9.125 -4.50923,10.5 -0.42623,1.375 -1.92593,4.525 -3.33267,7 -7.74214,13.62139 -11.31174,21.70387 -12.40745,28.09353 -0.64544,3.76392 -0.89653,7.12051 -0.55797,7.45907 0.33856,0.33856 2.34023,0.84083 4.44815,1.11616 3.33269,0.4353 4.27769,0.0656 7.24502,-2.83408 3.54235,-3.46165 11.28856,-14.79166 13.3893,-19.58391 0.66322,-1.51292 3.11844,-5.98236 5.45605,-9.93209 4.58732,-7.75089 13.04114,-25.17011 16.87617,-34.77356 4.79894,-12.0172 9.78206,-16.86405 17.45458,-16.97722 7.66592,-0.11308 14.51818,4.20893 19.91758,12.56286 5.16632,7.99329 5.60274,11.27618 2.87279,21.61013 -2.54334,9.62758 -5.62302,13.52664 -13.75162,17.41035 -2.545,1.21597 -4.85228,2.50416 -5.12728,2.86267 -0.275,0.3585 -4.1,2.81147 -8.5,5.45104 -4.4,2.63958 -10.08529,6.31479 -12.63398,8.16714 -2.54868,1.85235 -4.87936,3.36791 -5.17928,3.36791 -1.6969,0 -13.00402,8.55137 -16.13798,12.20485 -6.67086,7.77673 -12.60346,17.63007 -12.73589,21.15284 -0.16989,4.51893 0.73601,5.64231 4.54998,5.64231 2.40788,0 4.13369,-0.91905 6.69098,-3.56317 1.89539,-1.95975 7.49617,-6.11634 12.44617,-9.23688 4.95,-3.12054 10.08778,-6.57962 11.41729,-7.68683 5.68251,-4.73238 22.08271,-20.0162 22.08271,-20.57951 0,-0.33843 1.72533,-2.37543 3.83406,-4.52666 2.10874,-2.15124 4.02124,-4.36751 4.25,-4.92506 0.22877,-0.55754 3.34094,-2.74451 6.91594,-4.85992 6.15344,-3.64113 6.85162,-3.82127 13.09489,-3.3787 7.7419,0.5488 11.17031,2.64316 16.74833,10.23128 3.39161,4.61381 3.65647,5.48399 3.65254,12 -0.0104,17.17091 -8.4306,24.72541 -29.61936,26.57402 -24.09224,2.10192 -42.23445,7.24976 -55.00877,15.60869 -6.08245,3.98009 -8.05263,5.83114 -16.08555,15.11294 -6.05442,6.9957 -7.17664,15.61472 -2.43739,18.72 2.4099,1.57902 13.32671,3.88329 26.02549,5.49334 4.59693,0.58283 12.32894,2.68965 18.77791,5.11659 9.57013,3.60153 11.75027,4.0719 17.15754,3.7018 5.06173,-0.34645 7.26826,-1.11852 12.06744,-4.22241 20.67232,-13.3699 31.72114,-11.74792 50.414,7.40085 8.02012,8.21572 9.66772,12.43575 9.3772,24.01803 -0.40752,16.24667 -3.52362,24.58749 -15.31489,40.99308 -5.61407,7.81104 -6.17545,9.07412 -7.00585,15.76275 -0.4965,3.99921 -1.33941,8.41984 -1.87313,9.82363 -0.53372,1.40379 -0.9704,5.17333 -0.9704,8.37677 0,6.99994 -2.32113,20.13271 -5.13129,29.03249 -5.54294,17.55447 -20.64547,38.64416 -33.04307,46.14246 -2.15557,1.30373 -7.61066,5.08487 -12.12243,8.40252 -11.56583,8.50475 -28.69002,19.19914 -33.40723,20.86347 -9.74762,3.43916 -13.61137,6.46138 -21.29598,16.65769 -3.75515,4.98252 -8.98446,9.81404 -11.3748,10.50954 -1.16886,0.34009 -4.8252,1.66233 -8.1252,2.9383 -6.65624,2.5737 -23.82348,6.4989 -28.42354,6.4989 -1.62713,0 -3.22259,-0.42742 -3.54545,-0.94983 z m 16.3894,-56.57502 c 13.84981,-1.82965 22.95476,-4.08304 25.41214,-6.28928 2.56114,-2.29938 3.93629,-5.96691 7.59175,-20.24713 1.75124,-6.84131 4.33921,-15.97899 5.75105,-20.30597 1.41184,-4.32698 2.62495,-10.17698 2.69581,-13 l 0.12884,-5.13277 -5.5,0.0532 c -4.68498,0.0453 -6.52296,0.68743 -12.40324,4.33301 -8.008,4.96471 -8.90023,5.34155 -21.75154,9.18703 -13.56931,4.06031 -26.79527,5.55838 -35.8586,4.06161 -8.07939,-1.33429 -19.31705,-6.58777 -30.73258,-14.36716 -6.60596,-4.50179 -7.77655,-4.96096 -11.40604,-4.47415 -4.95859,0.66509 -8.05854,3.44379 -10.70499,9.59564 -4.22103,9.81205 -3.5666,22.83921 1.62844,32.41617 2.76402,5.09543 14.05473,15.47119 20.41988,18.76515 2.03022,1.05064 7.43022,3.01563 12,4.36665 7.31098,2.16142 10.28996,2.4618 24.80867,2.50154 9.27936,0.0254 21.49773,-0.61508 27.92041,-1.46356 z m 64.89452,-19.28703 c 16.74116,-8.85554 28.46297,-20.87994 35.82042,-36.74511 6.37958,-13.75656 5.6166,-20.46326 -2.16195,-19.004 -4.22951,0.79346 -25.03032,16.11691 -34.00901,25.05361 -7.95212,7.91492 -13.5634,18.50565 -13.61917,25.7048 -0.065,8.39594 4.4696,10.01595 13.96971,4.9907 z m -59.99125,-67.76323 c 4.22198,-1.41631 9.25132,-3.53272 11.17632,-4.70314 4.30053,-2.61475 23,-18.63483 23,-19.7044 0,-0.42589 4.42673,-5.52998 9.83717,-11.34243 23.59277,-25.3457 24.63806,-30.87551 7.1138,-37.63358 -9.81997,-3.78698 -15.56077,-4.65525 -20.34339,-3.07684 -4.74024,1.56441 -6.17575,4.57962 -6.98363,14.66863 -0.35819,4.47322 -1.52068,10.66015 -2.5833,13.74873 -3.69606,10.74278 -14.86833,24.66267 -27.92408,34.79151 -3.63911,2.82328 -7.40407,6.0141 -8.36657,7.09072 -2.49952,2.79586 -2.25276,6.59827 0.5,7.70475 3.66237,1.47209 6.46947,1.1747 14.57368,-1.54395 z m 71.87477,-2.94336 c 4.31133,-1.80139 29.73948,-20.84097 31.84093,-23.84122 0.80334,-1.14693 1.46062,-4.20253 1.46062,-6.79024 0,-3.87643 -0.45808,-5.06524 -2.60145,-6.75121 -6.46684,-5.08682 -14.40595,-2.84455 -20.53631,5.80015 -1.79452,2.53054 -6.00516,7.52599 -9.35696,11.10099 -10.42817,11.12257 -12.50528,13.91881 -12.50528,16.8348 0,5.22926 4.5307,6.6416 11.69845,3.64673 z M 391.80097,532.66939 c 13.11403,-6.66721 21.40893,-16.15838 21.43832,-24.53013 0.0165,-4.69871 -2.57955,-9.5767 -5.48473,-10.30586 -10.12485,-2.54117 -30.80914,9.27667 -38.65968,22.08798 -2.31095,3.77124 -2.4172,11.23923 -0.20484,14.39782 1.53229,2.18764 2.14499,2.3125 9.25,1.88491 5.91923,-0.35623 8.95301,-1.14121 13.66093,-3.53472 z"
       id="path2418"
       style="fill:#ffffff;fill-opacity:1" />
  </g>
</svg>
